<?xml version="1.0" encoding="utf-8"?>
<!-- Generator: Adobe Illustrator 19.2.0, SVG Export Plug-In . SVG Version: 6.00 Build 0)  -->
<svg version="1.1" xmlns="http://www.w3.org/2000/svg" xmlns:xlink="http://www.w3.org/1999/xlink" x="0px" y="0px"
	 viewBox="0 0 125 40" enable-background="new 0 0 125 40" xml:space="preserve">
<g id="bg" display="none">
	<rect display="inline" width="125" height="40"/>
</g>
<g id="icons">
	<g>
		<g>
			<path fill-rule="evenodd" clip-rule="evenodd" fill="#FFFFFF" d="M68.682,27.699c0.004-0.086,0.013-0.172,0.013-0.258
				c0-4.942,0-9.884,0-14.824c0-0.093,0-0.186,0-0.292c0.072-0.008,0.126-0.018,0.181-0.018c1.948,0.001,3.9-0.017,5.851,0.009
				c1.453,0.019,2.853,0.323,4.159,0.985c2.056,1.044,3.302,2.704,3.718,4.974c0.253,1.377,0.216,2.749-0.197,4.093
				c-0.599,1.962-1.857,3.382-3.663,4.323c-0.991,0.516-2.048,0.813-3.16,0.928c-0.177,0.018-0.353,0.052-0.529,0.079
				C72.932,27.699,70.806,27.699,68.682,27.699z M72.117,24.648c0.068,0.005,0.11,0.01,0.153,0.01c0.722,0,1.444,0.007,2.167-0.002
				c0.501-0.007,0.996-0.072,1.477-0.213c1.588-0.468,2.632-1.483,3.064-3.092c0.225-0.835,0.249-1.686,0.063-2.531
				c-0.294-1.343-1.045-2.347-2.273-2.978c-0.706-0.364-1.467-0.526-2.255-0.538c-0.745-0.012-1.49-0.003-2.233-0.001
				c-0.055,0-0.111,0.011-0.164,0.016C72.117,18.433,72.117,21.531,72.117,24.648z"/>
			<path fill-rule="evenodd" clip-rule="evenodd" fill="#FFFFFF" d="M89.752,27.699c0.018-0.068,0.03-0.141,0.057-0.205
				c2.078-4.999,4.157-9.998,6.238-14.997c0.025-0.059,0.052-0.117,0.084-0.181c1.208,0,2.412,0,3.626,0
				c0.098,0.235,0.193,0.467,0.29,0.702c1.981,4.805,3.96,9.611,5.938,14.417c0.035,0.083,0.048,0.177,0.069,0.265
				c-1.271,0-2.542,0-3.814,0c-0.015-0.033-0.033-0.064-0.044-0.099c-0.334-0.9-0.665-1.799-1.001-2.698
				c-0.032-0.087-0.068-0.172-0.098-0.252c-2.168,0-4.318,0-6.471,0c-0.385,1.024-0.763,2.037-1.146,3.049
				C92.239,27.699,90.995,27.699,89.752,27.699z M100.162,21.896c-0.761-1.995-1.513-3.963-2.273-5.954
				c-0.192,0.361-2.263,5.793-2.269,5.954C97.121,21.896,98.619,21.896,100.162,21.896z"/>
			<path fill-rule="evenodd" clip-rule="evenodd" fill="#FFFFFF" d="M30.53,12.308c2.434-0.001,4.87-0.001,7.305-0.002
				c1.648,0,3.294,0,4.943,0c0.085,0,0.172,0,0.252,0c0.05,0.163,0.068,2.611,0.023,2.986c-1.484,0-2.968,0-4.483,0
				c-0.004,0.103-0.008,0.186-0.008,0.269c0,1.077,0,2.154,0,3.23c0,2.868,0,5.737-0.001,8.605c0,0.101-0.007,0.202-0.011,0.303
				c-1.158,0-2.314,0-3.469,0c-0.002-0.101-0.008-0.202-0.008-0.303c0-3.933,0-7.866,0-11.8c0-0.092,0-0.183,0-0.297
				c-1.532,0-3.039,0-4.544,0C30.53,14.303,30.53,13.305,30.53,12.308z"/>
			<path fill-rule="evenodd" clip-rule="evenodd" fill="#FFFFFF" d="M115.419,27.699c0.003-0.079,0.007-0.158,0.007-0.238
				c0-4.948,0-9.897,0-14.845c0-0.093,0-0.186,0-0.274c0.176-0.046,3.252-0.054,3.512-0.009c0,4.088,0,8.179,0,12.283
				c0.085,0.005,0.149,0.013,0.211,0.013c1.9,0.001,3.8,0,5.701,0c0.05,0,0.1-0.006,0.151-0.009c0,1.026,0,2.052,0,3.078
				C121.806,27.699,118.612,27.699,115.419,27.699z"/>
			<path fill-rule="evenodd" clip-rule="evenodd" fill="#FFFFFF" d="M53.508,27.699c0-5.12,0-10.24,0-15.355
				c0.166-0.046,3.184-0.06,3.501-0.017c0.005,0.051,0.014,0.107,0.014,0.162c0.001,5.034,0.001,10.068,0.001,15.101
				c0,0.036-0.003,0.072-0.004,0.108C55.85,27.699,54.679,27.699,53.508,27.699z"/>
		</g>
		<g>
			<path fill-rule="evenodd" clip-rule="evenodd" fill="#FFFFFF" d="M20.956,11.641c0.046,0.053,0.09,0.11,0.139,0.16
				c1.282,1.283,2.566,2.565,3.847,3.846c0.056,0.056,0.121,0.103,0.159,0.134c-1.41,1.409-2.8,2.801-4.214,4.213
				c-1.357-1.357-2.748-2.748-4.143-4.142c-1.399,1.399-2.786,2.787-4.193,4.194c-1.406-1.407-2.798-2.797-4.203-4.203
				c-1.397,1.397-2.785,2.785-4.153,4.152C2.794,18.594,1.404,17.203,0,15.799c0.025-0.025,0.076-0.082,0.129-0.138
				c1.288-1.287,2.574-2.574,3.862-3.861c0.051-0.051,0.095-0.105,0.144-0.159c0.013,0,0.027,0,0.043,0
				c0.021,0.027,0.038,0.059,0.064,0.083c1.33,1.332,2.662,2.663,3.994,3.995c0.033,0.033,0.075,0.062,0.117,0.098
				c0.05-0.046,0.094-0.084,0.134-0.124c1.3-1.3,2.602-2.601,3.902-3.902c0.043-0.044,0.075-0.099,0.114-0.149
				c0.014,0,0.029,0,0.042,0c1.393,1.392,2.783,2.785,4.184,4.188c0.067-0.061,0.119-0.107,0.169-0.158
				c1.306-1.306,2.615-2.612,3.92-3.918c0.034-0.034,0.065-0.075,0.096-0.112C20.927,11.641,20.942,11.641,20.956,11.641z"/>
			<path fill-rule="evenodd" clip-rule="evenodd" fill="#FFFFFF" d="M8.416,24.216c1.362-1.362,2.755-2.754,4.133-4.133
				c1.37,1.372,2.763,2.765,4.142,4.144c-1.374,1.375-2.763,2.763-4.132,4.131C11.186,26.983,9.792,25.591,8.416,24.216z"/>
		</g>
	</g>
</g>
</svg>
