<?xml version="1.0" encoding="utf-8"?>
<!-- Generator: Adobe Illustrator 19.2.0, SVG Export Plug-In . SVG Version: 6.00 Build 0)  -->
<svg version="1.1" xmlns="http://www.w3.org/2000/svg" xmlns:xlink="http://www.w3.org/1999/xlink" x="0px" y="0px"
	 viewBox="0 0 125 40" enable-background="new 0 0 125 40" xml:space="preserve">
<g id="bg" display="none">
	<rect display="inline" width="125" height="40"/>
</g>
<g id="icons">
	<g>
		<g>
			<path fill="#24CF5F" d="M18.745,1.255L18.745,1.255C8.393,1.254,0,9.647,0,19.999c0,10.354,8.393,18.746,18.745,18.746
				c10.353,0,18.745-8.392,18.745-18.746C37.49,9.648,29.099,1.255,18.745,1.255z M27.342,28.29
				c-0.336,0.553-1.056,0.726-1.606,0.39c-4.401-2.691-9.943-3.298-16.468-1.808c-0.629,0.145-1.256-0.25-1.4-0.878
				c-0.142-0.629,0.25-1.255,0.88-1.398c7.141-1.633,13.266-0.93,18.207,2.089C27.504,27.022,27.68,27.741,27.342,28.29
				L27.342,28.29z M29.635,23.188L29.635,23.188c-0.423,0.687-1.323,0.903-2.01,0.48c-5.037-3.096-12.719-3.993-18.679-2.184
				c-0.773,0.233-1.59-0.202-1.824-0.973c-0.232-0.774,0.203-1.588,0.975-1.823c6.808-2.065,15.27-1.065,21.057,2.491
				C29.842,21.601,30.059,22.501,29.635,23.188z M29.834,17.872c-6.043-3.588-16.009-3.918-21.779-2.167
				c-0.926,0.28-1.906-0.242-2.186-1.169c-0.28-0.927,0.242-1.906,1.168-2.187c6.621-2.011,17.63-1.622,24.586,2.507
				c0.832,0.494,1.106,1.571,0.613,2.403C31.743,18.092,30.664,18.367,29.834,17.872z"/>
		</g>
		<path fill="#24CF5F" d="M50.999,18.56c-3.235-0.772-3.813-1.314-3.813-2.452c0-1.075,1.013-1.799,2.519-1.799
			c1.459,0,2.906,0.55,4.424,1.681c0.046,0.034,0.104,0.048,0.16,0.039c0.057-0.009,0.105-0.04,0.14-0.087l1.58-2.228
			c0.064-0.092,0.048-0.219-0.04-0.288c-1.806-1.449-3.839-2.154-6.216-2.154c-3.495,0-5.936,2.098-5.936,5.098
			c0,3.218,2.106,4.357,5.745,5.237c3.097,0.713,3.619,1.311,3.619,2.379c0,1.184-1.057,1.92-2.758,1.92
			c-1.89,0-3.43-0.637-5.153-2.129c-0.043-0.037-0.101-0.054-0.156-0.051c-0.057,0.005-0.109,0.031-0.145,0.075l-1.771,2.109
			c-0.074,0.087-0.064,0.218,0.02,0.293c2.006,1.791,4.473,2.737,7.134,2.737c3.766,0,6.2-2.058,6.2-5.242
			c0.006-2.689-1.603-4.177-5.544-5.136L50.999,18.56z"/>
		<path fill="#24CF5F" d="M65.071,15.367c-1.633,0-2.971,0.643-4.075,1.961v-1.483c0-0.117-0.096-0.212-0.213-0.212h-2.898
			c-0.117,0-0.212,0.095-0.212,0.212v16.475c0,0.117,0.094,0.212,0.212,0.212h2.898c0.117,0,0.213-0.096,0.213-0.212v-5.2
			c1.104,1.239,2.443,1.844,4.075,1.844c3.033,0,6.104-2.335,6.104-6.798c0.005-4.464-3.066-6.8-6.101-6.8H65.071z M67.804,22.167
			c0,2.273-1.4,3.859-3.405,3.859c-1.981,0-3.475-1.659-3.475-3.859c0-2.2,1.494-3.859,3.475-3.859
			C66.371,18.308,67.804,19.931,67.804,22.167L67.804,22.167z"/>
		<path fill="#24CF5F" d="M79.043,15.367c-3.906,0-6.966,3.008-6.966,6.848c0,3.798,3.039,6.774,6.919,6.774
			c3.919,0,6.989-2.997,6.989-6.823c0-3.813-3.048-6.798-6.941-6.798V15.367z M79.043,26.048c-2.077,0-3.644-1.669-3.644-3.882
			c0-2.223,1.513-3.835,3.596-3.835c2.091,0,3.668,1.669,3.668,3.884C82.663,24.436,81.14,26.048,79.043,26.048L79.043,26.048z"/>
		<path fill="#24CF5F" d="M94.325,15.633h-3.189v-3.261c0-0.117-0.095-0.212-0.211-0.212h-2.898c-0.118,0-0.213,0.095-0.213,0.212
			v3.261h-1.392c-0.117,0-0.211,0.095-0.211,0.212v2.491c0,0.117,0.094,0.212,0.211,0.212h1.392v6.445
			c0,2.604,1.297,3.924,3.854,3.924c1.04,0,1.901-0.215,2.715-0.675c0.066-0.037,0.107-0.108,0.107-0.184v-2.371
			c0-0.073-0.037-0.143-0.1-0.181c-0.063-0.04-0.143-0.042-0.207-0.01c-0.557,0.281-1.098,0.41-1.701,0.41
			c-0.93,0-1.344-0.422-1.344-1.368V18.55h3.189c0.116,0,0.211-0.095,0.211-0.212v-2.49c0.005-0.118-0.089-0.213-0.209-0.213
			L94.325,15.633z"/>
		<path fill="#24CF5F" d="M105.436,15.645v-0.4c0-1.178,0.453-1.703,1.466-1.703c0.604,0,1.089,0.12,1.633,0.3
			c0.067,0.021,0.137,0.011,0.191-0.029c0.056-0.04,0.087-0.104,0.087-0.172v-2.442c0-0.094-0.061-0.176-0.15-0.204
			c-0.573-0.17-1.308-0.346-2.409-0.346c-2.677,0-4.091,1.507-4.091,4.357v0.613h-1.393c-0.116,0-0.212,0.096-0.212,0.213v2.503
			c0,0.117,0.096,0.212,0.212,0.212h1.393v9.941c0,0.117,0.094,0.212,0.211,0.212h2.898c0.117,0,0.213-0.095,0.213-0.212v-9.941
			h2.706l4.145,9.938c-0.471,1.045-0.933,1.252-1.564,1.252c-0.512,0-1.049-0.152-1.599-0.453c-0.053-0.029-0.113-0.034-0.169-0.016
			c-0.056,0.019-0.102,0.06-0.125,0.114l-0.982,2.155c-0.047,0.102-0.008,0.221,0.091,0.274c1.025,0.556,1.951,0.793,3.096,0.793
			c2.139,0,3.321-0.997,4.365-3.678l5.028-12.992c0.024-0.066,0.018-0.139-0.023-0.197c-0.04-0.058-0.104-0.092-0.173-0.092h-3.018
			c-0.09,0-0.17,0.057-0.2,0.142l-3.091,8.827l-3.384-8.834c-0.031-0.082-0.112-0.136-0.198-0.136h-4.952V15.645z"/>
		<path fill="#24CF5F" d="M98.995,15.633h-2.898c-0.117,0-0.213,0.095-0.213,0.212V28.49c0,0.117,0.096,0.212,0.213,0.212h2.898
			c0.116,0,0.212-0.095,0.212-0.212V15.847C99.207,15.729,99.113,15.634,98.995,15.633L98.995,15.633z"/>
		<path fill="#24CF5F" d="M97.561,9.875c-1.148,0-2.079,0.93-2.079,2.078c0,1.149,0.931,2.079,2.079,2.079
			c1.148,0,2.078-0.93,2.078-2.079C99.639,10.805,98.71,9.875,97.561,9.875L97.561,9.875z"/>
		<path fill="#24CF5F" d="M122.95,19.698c-1.147,0-2.039-0.921-2.039-2.04c0-1.119,0.904-2.05,2.05-2.05
			c1.148,0,2.039,0.921,2.039,2.039C125,18.765,124.096,19.698,122.95,19.698L122.95,19.698z M122.962,15.811
			c-1.046,0-1.835,0.831-1.835,1.847c0,1.017,0.784,1.836,1.824,1.836c1.044,0,1.836-0.83,1.836-1.847
			C124.787,16.63,124,15.811,122.962,15.811L122.962,15.811z M123.414,17.856l0.577,0.807h-0.487l-0.52-0.74h-0.447v0.74h-0.406
			v-2.14h0.954c0.497,0,0.826,0.255,0.826,0.683c0.001,0.351-0.202,0.566-0.496,0.65H123.414z M123.069,16.891h-0.532v0.677h0.532
			c0.265,0,0.422-0.13,0.422-0.339C123.491,17.009,123.333,16.891,123.069,16.891L123.069,16.891z"/>
	</g>
</g>
</svg>
