<svg width="125" height="40" viewBox="0 0 125 40" fill="none" xmlns="http://www.w3.org/2000/svg">
<g clip-path="url(#clip0)">
<path d="M38.2004 14.4V12.9C38.2004 12.7 38.4004 12.5 38.6004 12.5H45.3004C45.5004 12.5 45.7004 12.7 45.7004 12.9V14.2C45.7004 14.4 45.5004 14.7 45.2004 15.1L41.7004 20.1C43.0004 20.1 44.4004 20.3 45.5004 20.9C45.8004 21 45.8004 21.3 45.9004 21.5V23.1C45.9004 23.3 45.7004 23.6 45.4004 23.4C43.3004 22.3 40.6004 22.2 38.3004 23.4C38.1004 23.5 37.8004 23.3 37.8004 23.1V21.6C37.8004 21.4 37.8004 20.9 38.1004 20.6L42.1004 14.8H38.6004C38.4004 14.8 38.2004 14.6 38.2004 14.4ZM13.7004 23.7H11.7004C11.5004 23.7 11.4004 23.5 11.3004 23.4V12.9C11.3004 12.7 11.5004 12.5 11.7004 12.5H13.6004C13.8004 12.5 14.0004 12.7 14.0004 12.9V14.3C14.5004 13 15.4004 12.4 16.7004 12.4C18.0004 12.4 18.8004 13 19.4004 14.3C19.9004 13 21.0004 12.4 22.2004 12.4C23.1004 12.4 24.0004 12.8 24.6004 13.5C25.2004 14.4 25.1004 15.7 25.1004 16.8V23.4C25.1004 23.6 24.9004 23.8 24.7004 23.8H22.7004C22.5004 23.8 22.3004 23.6 22.3004 23.4V17.9C22.3004 17.5 22.3004 16.4 22.2004 15.9C22.0004 15.2 21.6004 15 21.0004 15C20.5004 15 20.0004 15.3 19.8004 15.9C19.6004 16.4 19.6004 17.3 19.6004 17.9V23.4C19.6004 23.6 19.4004 23.8 19.2004 23.8H17.2004C17.0004 23.8 16.8004 23.6 16.8004 23.4V17.9C16.8004 16.7 17.0004 15 15.5004 15C14.0004 15 14.1004 16.7 14.1004 17.9V23.4C14.1004 23.6 13.9004 23.7 13.7004 23.7ZM51.5004 12.3C54.5004 12.3 56.2004 14.9 56.2004 18.2C56.2004 21.4 54.4004 23.9 51.5004 23.9C48.5004 23.9 46.9004 21.3 46.9004 18.1C46.9004 14.8 48.5004 12.3 51.5004 12.3ZM51.5004 14.5C50.0004 14.5 49.9004 16.5 49.9004 17.8C49.9004 19.1 49.9004 21.8 51.5004 21.8C53.1004 21.8 53.2004 19.6 53.2004 18.3C53.2004 17.4 53.2004 16.4 52.9004 15.5C52.6004 14.7 52.1004 14.5 51.5004 14.5ZM60.1004 23.7H58.1004C57.9004 23.7 57.7004 23.5 57.7004 23.3V12.8C57.7004 12.6 57.9004 12.5 58.1004 12.5H60.0004C60.2004 12.5 60.3004 12.6 60.4004 12.8V14.4C61.0004 13 61.8004 12.3 63.2004 12.3C64.1004 12.3 65.0004 12.6 65.6004 13.5C66.1004 14.3 66.1004 15.7 66.1004 16.8V23.4C66.1004 23.6 65.9004 23.7 65.7004 23.7H63.7004C63.5004 23.7 63.4004 23.5 63.3004 23.4V17.7C63.3004 16.6 63.4004 14.9 62.0004 14.9C61.5004 14.9 61.0004 15.2 60.8004 15.7C60.5004 16.3 60.5004 17 60.5004 17.7V23.3C60.5004 23.6 60.3004 23.7 60.1004 23.7ZM34.9004 23.7C34.8004 23.8 34.6004 23.8 34.4004 23.7C33.7004 23.1 33.6004 22.9 33.2004 22.3C32.1004 23.4 31.3004 23.8 29.8004 23.8C28.1004 23.8 26.7004 22.7 26.7004 20.6C26.7004 18.9 27.6004 17.8 28.9004 17.3C30.0004 16.8 31.6004 16.7 32.7004 16.6V16.3C32.7004 15.8 32.7004 15.2 32.5004 14.8C32.3004 14.4 31.8004 14.3 31.4004 14.3C30.6004 14.3 29.9004 14.7 29.8004 15.5C29.8004 15.7 29.6004 15.9 29.4004 15.9L27.4004 15.7C27.2004 15.7 27.0004 15.5 27.1004 15.3C27.6004 12.9 29.7004 12.2 31.7004 12.2C32.7004 12.2 34.0004 12.5 34.8004 13.2C35.8004 14.1 35.7004 15.4 35.7004 16.7V19.9C35.7004 20.9 36.1004 21.3 36.5004 21.8C36.6004 22 36.7004 22.2 36.5004 22.3C36.0004 22.7 35.3004 23.3 34.9004 23.7ZM32.8004 18.7V18.3C31.3004 18.3 29.8004 18.6 29.8004 20.4C29.8004 21.3 30.3004 21.9 31.0004 21.9C31.6004 21.9 32.1004 21.5 32.4004 21C32.8004 20.2 32.8004 19.5 32.8004 18.7ZM8.10039 23.7C8.00039 23.8 7.80039 23.8 7.60039 23.7C6.90039 23.1 6.80039 22.9 6.40039 22.3C5.30039 23.4 4.50039 23.8 3.00039 23.8C1.30039 23.8 -0.0996094 22.7 -0.0996094 20.6C-0.0996094 18.9 0.80039 17.8 2.10039 17.3C3.20039 16.8 4.80039 16.7 5.90039 16.6V16.3C5.90039 15.8 5.90039 15.2 5.70039 14.8C5.50039 14.4 5.00039 14.3 4.60039 14.3C3.80039 14.3 3.10039 14.7 3.00039 15.5C3.00039 15.7 2.80039 15.9 2.60039 15.9L0.600391 15.7C0.400391 15.7 0.200391 15.5 0.300391 15.3C0.800391 12.9 2.90039 12.2 4.90039 12.2C5.90039 12.2 7.20039 12.5 8.00039 13.2C9.00039 14.1 8.90039 15.4 8.90039 16.7V19.9C8.90039 20.9 9.30039 21.3 9.70039 21.8C9.80039 22 9.90039 22.2 9.70039 22.3C9.20039 22.7 8.50039 23.3 8.10039 23.7ZM6.00039 18.7V18.3C4.50039 18.3 3.00039 18.6 3.00039 20.4C3.00039 21.3 3.50039 21.9 4.20039 21.9C4.80039 21.9 5.30039 21.5 5.60039 21C6.00039 20.2 6.00039 19.5 6.00039 18.7ZM41.0004 27.7C37.2004 30.5 31.6004 32 26.8004 32C20.1004 32 14.0004 29.5 9.50039 25.4C9.10039 25.1 9.50039 24.6 9.90039 24.9C14.8004 27.8 20.9004 29.5 27.2004 29.5C31.5004 29.5 36.1004 28.6 40.4004 26.8C41.1004 26.6 41.6004 27.3 41.0004 27.7ZM42.6004 25.9C42.1004 25.3 39.4004 25.6 38.1004 25.8C37.7004 25.8 37.7004 25.5 38.0004 25.3C40.2004 23.8 43.8004 24.2 44.2004 24.7C44.6004 25.2 44.1004 28.8 42.0004 30.5C41.7004 30.8 41.4004 30.6 41.5004 30.3C42.0004 29.1 43.0004 26.6 42.6004 25.9ZM107.7 21.9C108.1 21.6 108.3 21.2 108.3 20.7C108.3 20.3 108.2 20.1 108 19.8C107.8 19.6 107.4 19.4 106.8 19.1L104.9 18.4C103.3 17.8 102.4 16.8 102.4 15.3C102.4 14.3 102.8 13.6 103.5 13C104.2 12.4 105.2 12.1 106.4 12.1C107.4 12.1 108.3 12.3 109.2 12.6C109.4 12.7 109.5 12.7 109.6 12.8C109.7 12.9 109.7 13 109.7 13.2V14C109.7 14.3 109.6 14.4 109.4 14.4C109.3 14.4 109.1 14.4 108.9 14.3C108.1 14.1 107.3 13.9 106.5 13.9C105.1 13.9 104.4 14.4 104.4 15.3C104.4 15.7 104.5 16 104.8 16.2C105 16.4 105.5 16.7 106.2 16.9L107.9 17.6C108.8 17.9 109.4 18.3 109.8 18.8C110.2 19.3 110.4 19.9 110.4 20.6C110.4 21.6 110 22.5 109.2 23.1C108.4 23.7 107.4 24 106.1 24C104.9 24 103.8 23.8 102.8 23.4C102.6 23.3 102.5 23.2 102.4 23.2C102.3 23.1 102.3 23 102.3 22.8V22.2C102.3 21.9 102.4 21.8 102.6 21.8C102.7 21.8 102.9 21.8 103.2 21.9C104.2 22.2 105.2 22.4 106.2 22.4C106.7 22.4 107.3 22.2 107.7 21.9ZM97.9004 13C97.9004 12.7 98.0004 12.6 98.3004 12.6H99.6004C99.9004 12.6 100 12.7 100 13V23.3C100 23.6 99.9004 23.7 99.6004 23.7H98.7004C98.6004 23.7 98.4004 23.7 98.4004 23.6C98.3004 23.5 98.3004 23.4 98.2004 23.3L98.0004 22.5C96.6004 23.5 95.2004 24 93.8004 24C92.8004 24 92.0004 23.7 91.4004 23.1C90.8004 22.5 90.6004 21.7 90.6004 20.6V13C90.6004 12.7 90.7004 12.6 91.0004 12.6H92.3004C92.6004 12.6 92.7004 12.7 92.7004 13V20C92.7004 20.8 92.9004 21.4 93.2004 21.7C93.5004 22.1 94.0004 22.3 94.7004 22.3C95.8004 22.3 96.8004 21.9 97.9004 21.2V13ZM86.1004 23.7C85.8004 23.7 85.7004 23.6 85.7004 23.3V16.2C85.7004 15.5 85.6004 14.9 85.3004 14.6C85.0004 14.2 84.6004 14.1 84.0004 14.1C82.9004 14.1 81.8004 14.4 80.8004 15.1C80.8004 15.2 80.8004 15.3 80.8004 15.4V23.4C80.8004 23.7 80.7004 23.8 80.4004 23.8H79.1004C78.8004 23.8 78.7004 23.7 78.7004 23.4V16.3C78.7004 15.6 78.6004 15 78.3004 14.7C78.0004 14.3 77.6004 14.2 77.0004 14.2C75.9004 14.2 74.8004 14.5 73.8004 15.2V23.5C73.8004 23.8 73.7004 23.9 73.4004 23.9H72.1004C71.8004 23.9 71.7004 23.8 71.7004 23.5V13C71.7004 12.7 71.8004 12.6 72.1004 12.6H73.1004C73.2004 12.6 73.4004 12.6 73.4004 12.7C73.5004 12.8 73.5004 12.9 73.6004 13L73.7004 13.7C75.1004 12.7 76.5004 12.2 77.8004 12.2C79.2004 12.2 80.1004 12.7 80.6004 13.8C82.1004 12.8 83.5004 12.2 85.0004 12.2C86.0004 12.2 86.8004 12.5 87.3004 13.1C87.8004 13.7 88.1004 14.5 88.1004 15.5V23.3C88.1004 23.6 88.0004 23.7 87.7004 23.7H86.1004ZM119.8 15C119.3 15.6 119 16.6 119 18V18.3C119 19.6 119.3 20.6 119.8 21.2C120.4 21.8 121.2 22.1 122.4 22.1C123 22.1 123.7 22 124.4 21.8C124.6 21.8 124.7 21.7 124.7 21.7C124.9 21.7 125 21.8 125 22.1V22.7C125 22.9 125 23 124.9 23.1C124.8 23.2 124.7 23.3 124.5 23.3C123.8 23.6 122.9 23.8 122 23.8C120.3 23.8 118.9 23.3 118 22.3C117.1 21.3 116.6 19.9 116.6 18C116.6 16.1 117.1 14.7 118 13.7C118.9 12.7 120.3 12.2 122 12.2C122.8 12.2 123.6 12.3 124.3 12.6C124.5 12.7 124.6 12.7 124.6 12.8C124.7 12.9 124.7 13 124.7 13.2V14C124.7 14.3 124.6 14.4 124.4 14.4C124.3 14.4 124.2 14.4 124 14.3C123.4 14.1 122.8 14 122.2 14C121.2 14.1 120.3 14.4 119.8 15ZM113.9 12.6C114.2 12.6 114.3 12.7 114.3 13V23.3C114.3 23.6 114.2 23.7 113.9 23.7H112.6C112.3 23.7 112.2 23.6 112.2 23.3V13C112.2 12.7 112.3 12.6 112.6 12.6H113.9ZM114.3 8.30002C114.5 8.50002 114.7 8.90002 114.7 9.30002C114.7 9.70002 114.6 10 114.3 10.3C114.1 10.5 113.7 10.7 113.3 10.7C112.9 10.7 112.5 10.6 112.3 10.3C112.1 10.1 111.9 9.70002 111.9 9.30002C111.9 8.90002 112 8.60002 112.3 8.30002C112.5 8.10002 112.9 7.90002 113.3 7.90002C113.7 7.90002 114.1 8.00002 114.3 8.30002Z" fill="white"/>
</g>
<defs>
<clipPath id="clip0">
<rect width="125" height="40" fill="white"/>
</clipPath>
</defs>
</svg>
