<svg width="125" height="40" viewBox="0 0 125 40" fill="none" xmlns="http://www.w3.org/2000/svg">
<path d="M25.409 13.754C25.112 12.639 24.232 11.76 23.114 11.459C21.091 10.918 12.975 10.918 12.975 10.918C12.975 10.918 4.863 10.918 2.836 11.459C1.721 11.756 0.842 12.636 0.541 13.754C0 15.777 0 20 0 20C0 20 0 24.223 0.541 26.246C0.838 27.361 1.718 28.24 2.836 28.541C4.863 29.082 12.975 29.082 12.975 29.082C12.975 29.082 21.091 29.082 23.114 28.541C24.229 28.244 25.108 27.364 25.409 26.246C25.95 24.223 25.95 20 25.95 20C25.95 20 25.95 15.777 25.409 13.754Z" fill="#FF0000"/>
<path d="M10.382 23.893L17.124 20L10.382 16.107V23.893Z" fill="white"/>
<path d="M37.666 27.443C37.154 27.096 36.787 26.56 36.572 25.829C36.357 25.098 36.246 24.128 36.246 22.914V21.263C36.246 20.037 36.37 19.054 36.618 18.311C36.866 17.568 37.254 17.027 37.778 16.689C38.302 16.35 38.992 16.177 39.846 16.177C40.688 16.177 41.361 16.35 41.869 16.697C42.377 17.044 42.748 17.585 42.984 18.319C43.219 19.054 43.335 20.036 43.335 21.258V22.909C43.335 24.123 43.219 25.097 42.992 25.832C42.765 26.567 42.393 27.108 41.877 27.446C41.365 27.785 40.667 27.958 39.788 27.958C38.888 27.963 38.178 27.79 37.666 27.443ZM40.543 25.66C40.683 25.288 40.758 24.682 40.758 23.844V20.298C40.758 19.481 40.688 18.886 40.543 18.506C40.403 18.13 40.151 17.94 39.792 17.94C39.445 17.94 39.202 18.13 39.057 18.506C38.917 18.882 38.842 19.48 38.842 20.298V23.844C38.842 24.686 38.908 25.293 39.044 25.66C39.18 26.032 39.428 26.217 39.787 26.217C40.151 26.217 40.399 26.031 40.543 25.66Z" fill="white"/>
<path d="M77.078 22.943V23.517C77.078 24.248 77.099 24.793 77.144 25.16C77.185 25.523 77.276 25.792 77.412 25.957C77.548 26.122 77.759 26.209 78.044 26.209C78.428 26.209 78.692 26.06 78.832 25.763C78.972 25.466 79.051 24.97 79.063 24.277L81.272 24.405C81.284 24.504 81.289 24.64 81.289 24.814C81.289 25.867 81 26.651 80.426 27.171C79.852 27.691 79.039 27.951 77.986 27.951C76.723 27.951 75.839 27.555 75.332 26.762C74.824 25.969 74.572 24.747 74.572 23.088V21.102C74.572 19.393 74.836 18.15 75.36 17.362C75.884 16.578 76.784 16.185 78.06 16.185C78.939 16.185 79.612 16.346 80.083 16.668C80.554 16.99 80.884 17.49 81.078 18.171C81.268 18.852 81.367 19.793 81.367 20.991V22.94H77.078V22.943ZM77.404 18.155C77.276 18.316 77.189 18.58 77.144 18.943C77.099 19.306 77.078 19.864 77.078 20.603V21.42H78.952V20.603C78.952 19.872 78.927 19.319 78.878 18.943C78.828 18.567 78.738 18.299 78.61 18.146C78.482 17.993 78.28 17.915 78.007 17.915C77.734 17.911 77.532 17.994 77.404 18.155Z" fill="white"/>
<path d="M31.432 22.729L28.517 12.206H31.06L32.08 16.974C32.34 18.151 32.53 19.15 32.654 19.979H32.728C32.815 19.385 33.005 18.39 33.302 16.99L34.359 12.201H36.902L33.954 22.728V27.777H31.432V22.729V22.729Z" fill="white"/>
<path d="M51.6031 16.4V27.773H49.6011L49.3781 26.382H49.3241C48.7791 27.435 47.9621 27.959 46.8761 27.959C46.1211 27.959 45.5631 27.711 45.2041 27.216C44.8451 26.721 44.6671 25.949 44.6671 24.896V16.4H47.2261V24.751C47.2261 25.259 47.2801 25.622 47.3911 25.837C47.5021 26.052 47.6881 26.163 47.9481 26.163C48.1711 26.163 48.3861 26.097 48.5881 25.961C48.7901 25.825 48.9431 25.651 49.0421 25.441V16.4H51.6031Z" fill="white"/>
<path d="M64.739 16.4V27.773H62.737L62.514 26.382H62.46C61.915 27.435 61.098 27.959 60.012 27.959C59.257 27.959 58.699 27.711 58.34 27.216C57.981 26.721 57.803 25.949 57.803 24.896V16.4H60.362V24.751C60.362 25.259 60.416 25.622 60.527 25.837C60.638 26.052 60.824 26.163 61.084 26.163C61.307 26.163 61.522 26.097 61.724 25.961C61.926 25.825 62.079 25.651 62.178 25.441V16.4H64.739Z" fill="white"/>
<path d="M58.563 14.266H56.02V27.774H53.514V14.266H50.971V12.206H58.559V14.266H58.563Z" fill="white"/>
<path d="M73.214 18.221C73.057 17.503 72.809 16.983 72.463 16.661C72.116 16.339 71.641 16.178 71.035 16.178C70.564 16.178 70.127 16.31 69.718 16.578C69.309 16.842 68.996 17.193 68.773 17.627H68.752V11.633H66.283V27.778H68.397L68.657 26.701H68.711C68.909 27.085 69.206 27.386 69.603 27.609C69.999 27.832 70.437 27.943 70.92 27.943C71.787 27.943 72.423 27.543 72.831 26.746C73.24 25.949 73.442 24.703 73.442 23.006V21.206C73.445 19.934 73.367 18.939 73.214 18.221ZM70.865 22.861C70.865 23.691 70.832 24.339 70.762 24.81C70.696 25.281 70.58 25.615 70.419 25.813C70.258 26.011 70.043 26.11 69.771 26.11C69.56 26.11 69.366 26.06 69.185 25.961C69.007 25.862 68.859 25.713 68.747 25.515V19.054C68.834 18.744 68.982 18.493 69.193 18.294C69.404 18.096 69.631 17.997 69.878 17.997C70.138 17.997 70.34 18.1 70.481 18.302C70.621 18.504 70.72 18.851 70.778 19.33C70.832 19.813 70.861 20.498 70.861 21.39V22.86H70.865V22.861Z" fill="white"/>
<path d="M88.297 12.206H84.803V27.943H87.074V15.162L89.578 27.943H91.674L94.294 14.871V27.959H96.507V12.206H92.897L90.655 24.653L88.297 12.206Z" fill="white"/>
<path d="M103.203 27.959H105.008V16.4H102.562V25.527C102.154 26.226 100.699 26.808 100.699 25.411C100.699 24.014 100.699 16.401 100.699 16.401H98.253C98.253 16.401 98.253 23.781 98.253 25.761C98.253 27.741 100.932 29.488 102.795 26.518L103.203 27.959Z" fill="white"/>
<path d="M116.712 16.4H114.441V27.959H116.712V16.4Z" fill="white"/>
<path d="M115.635 15.046C114.85 15.046 114.208 14.404 114.208 13.619V13.27C114.208 12.485 114.85 11.843 115.635 11.843C116.42 11.843 117.062 12.485 117.062 13.27V13.619C117.061 14.404 116.42 15.046 115.635 15.046Z" fill="white"/>
<path d="M110.773 20.083H112.753C112.811 19.122 112.869 16.211 109.783 16.211C107.221 16.211 106.522 17.841 106.522 19.297C106.522 20.753 107.26 21.781 109.356 23.412C111.142 24.344 111.219 26.479 109.744 26.479C109.045 26.479 108.618 26.013 108.618 25.353C108.618 24.693 108.618 24.305 108.618 24.305H106.522C106.522 24.305 106.522 25.198 106.522 25.508C106.522 26.556 107.221 28.148 109.666 28.148C112.112 28.148 112.966 26.789 112.966 24.693C112.966 22.597 108.541 20.539 108.541 19.103C108.541 17.434 110.744 17.618 110.744 18.831L110.773 20.083Z" fill="white"/>
<path d="M120.885 19.141C120.652 21.781 120.846 23.799 120.924 25.08C121.03 26.824 122.865 26.827 122.865 25.041C122.865 23.838 122.865 23.76 122.865 23.76H125C125 26.089 124.185 27.991 121.894 27.991C119.215 27.991 118.439 26.089 118.439 24.07C118.439 22.051 118.439 20.693 118.439 20.693C118.439 17.976 119.604 16.151 121.816 16.151C124.766 16.151 124.844 18.247 124.844 19.218C124.844 20.188 124.844 20.499 124.844 20.499L122.864 20.654C122.864 20.654 122.864 20.188 122.864 19.101C122.865 18.015 121.506 17.045 120.885 19.141Z" fill="white"/>
</svg>
